<svg xmlns="http://www.w3.org/2000/svg" xmlns:xlink="http://www.w3.org/1999/xlink" width="500" zoomAndPan="magnify" viewBox="0 0 375 374.999991" height="500" preserveAspectRatio="xMidYMid meet" version="1.0"><defs><g/><clipPath id="4c85d9ddea"><path d="M 134.050781 103.417969 L 230 103.417969 L 230 192 L 134.050781 192 Z M 134.050781 103.417969 " clip-rule="nonzero"/></clipPath><clipPath id="289514b71b"><path d="M 145 132 L 241 132 L 241 220.417969 L 145 220.417969 Z M 145 132 " clip-rule="nonzero"/></clipPath></defs><rect x="-37.5" width="450" fill="#ffffff" y="-37.499999" height="449.999989" fill-opacity="1"/><rect x="-37.5" width="450" fill="#ffffff" y="-37.499999" height="449.999989" fill-opacity="1"/><g clip-path="url(#4c85d9ddea)"><path fill="#b5c18e" d="M 167.210938 173.449219 L 207.78125 173.449219 C 208.632812 173.449219 209.46875 173.554688 210.292969 173.765625 C 211.117188 173.976562 211.902344 174.285156 212.648438 174.695312 C 213.394531 175.101562 214.078125 175.597656 214.699219 176.175781 C 215.324219 176.757812 215.863281 177.40625 216.320312 178.125 C 215.925781 178.523438 215.578125 178.964844 215.277344 179.441406 C 214.976562 179.917969 214.730469 180.421875 214.539062 180.949219 C 214.347656 181.480469 214.214844 182.027344 214.140625 182.585938 C 214.070312 183.144531 214.058594 183.703125 214.105469 184.265625 C 214.152344 184.828125 214.261719 185.375 214.429688 185.914062 C 214.597656 186.453125 214.820312 186.964844 215.101562 187.457031 C 215.382812 187.945312 215.710938 188.398438 216.085938 188.816406 C 216.464844 189.234375 216.882812 189.609375 217.34375 189.9375 C 217.800781 190.261719 218.289062 190.539062 218.808594 190.757812 C 219.328125 190.980469 219.863281 191.144531 220.417969 191.246094 C 220.972656 191.351562 221.53125 191.398438 222.09375 191.378906 C 222.65625 191.363281 223.210938 191.289062 223.757812 191.152344 C 224.304688 191.015625 224.832031 190.820312 225.335938 190.570312 C 225.839844 190.316406 226.3125 190.015625 226.75 189.664062 C 227.191406 189.308594 227.585938 188.914062 227.941406 188.472656 C 228.292969 188.035156 228.59375 187.5625 228.84375 187.054688 C 229.097656 186.550781 229.289062 186.027344 229.425781 185.480469 C 229.5625 184.933594 229.636719 184.375 229.652344 183.8125 C 229.671875 183.25 229.625 182.691406 229.519531 182.136719 C 229.414062 181.582031 229.25 181.046875 229.027344 180.53125 C 228.808594 180.011719 228.53125 179.523438 228.203125 179.0625 C 227.878906 178.605469 227.503906 178.1875 227.085938 177.808594 C 226.667969 177.433594 226.214844 177.105469 225.722656 176.824219 C 225.234375 176.546875 224.71875 176.324219 224.179688 176.15625 C 223.824219 175.371094 223.414062 174.617188 222.949219 173.894531 C 222.484375 173.167969 221.972656 172.480469 221.410156 171.828125 C 220.847656 171.175781 220.242188 170.570312 219.589844 170.003906 C 218.941406 169.441406 218.253906 168.925781 217.53125 168.460938 C 216.808594 167.992188 216.054688 167.582031 215.273438 167.222656 C 214.488281 166.863281 213.683594 166.5625 212.859375 166.320312 C 212.035156 166.078125 211.195312 165.894531 210.34375 165.769531 C 209.492188 165.648438 208.636719 165.585938 207.773438 165.582031 L 167.210938 165.582031 C 166.386719 165.582031 165.5625 165.542969 164.742188 165.460938 C 163.921875 165.382812 163.105469 165.261719 162.292969 165.097656 C 161.484375 164.9375 160.683594 164.738281 159.894531 164.5 C 159.105469 164.257812 158.328125 163.980469 157.566406 163.664062 C 156.804688 163.347656 156.058594 162.996094 155.328125 162.605469 C 154.601562 162.21875 153.894531 161.792969 153.207031 161.335938 C 152.519531 160.875 151.859375 160.386719 151.21875 159.863281 C 150.582031 159.339844 149.972656 158.785156 149.386719 158.199219 C 148.804688 157.617188 148.25 157.003906 147.726562 156.367188 C 147.203125 155.730469 146.710938 155.066406 146.253906 154.378906 C 145.792969 153.695312 145.371094 152.988281 144.980469 152.257812 C 144.589844 151.53125 144.238281 150.785156 143.921875 150.023438 C 143.605469 149.257812 143.328125 148.484375 143.089844 147.691406 C 142.851562 146.902344 142.648438 146.101562 142.488281 145.292969 C 142.328125 144.484375 142.207031 143.667969 142.125 142.847656 C 142.042969 142.023438 142.003906 141.199219 142.003906 140.375 C 142.003906 139.550781 142.042969 138.726562 142.125 137.902344 C 142.207031 137.082031 142.328125 136.265625 142.488281 135.457031 C 142.648438 134.648438 142.851562 133.847656 143.089844 133.058594 C 143.328125 132.265625 143.605469 131.492188 143.921875 130.726562 C 144.238281 129.964844 144.589844 129.21875 144.980469 128.492188 C 145.371094 127.765625 145.792969 127.054688 146.253906 126.371094 C 146.710938 125.683594 147.203125 125.019531 147.726562 124.382812 C 148.25 123.746094 148.804688 123.132812 149.386719 122.550781 C 149.972656 121.964844 150.582031 121.414062 151.21875 120.886719 C 151.859375 120.363281 152.519531 119.875 153.207031 119.414062 C 153.894531 118.957031 154.601562 118.53125 155.328125 118.144531 C 156.058594 117.753906 156.804688 117.402344 157.566406 117.085938 C 158.328125 116.769531 159.105469 116.492188 159.894531 116.253906 C 160.683594 116.011719 161.484375 115.8125 162.292969 115.652344 C 163.105469 115.488281 163.921875 115.367188 164.742188 115.289062 C 165.5625 115.207031 166.386719 115.167969 167.210938 115.167969 L 199.117188 115.167969 C 199.402344 115.65625 199.738281 116.109375 200.125 116.527344 C 200.511719 116.945312 200.9375 117.316406 201.402344 117.636719 C 201.867188 117.960938 202.363281 118.230469 202.890625 118.445312 C 203.417969 118.664062 203.957031 118.820312 204.519531 118.914062 C 205.078125 119.011719 205.640625 119.046875 206.207031 119.019531 C 206.777344 118.996094 207.332031 118.90625 207.882812 118.757812 C 208.429688 118.609375 208.957031 118.40625 209.457031 118.140625 C 209.960938 117.878906 210.429688 117.5625 210.863281 117.199219 C 211.300781 116.832031 211.6875 116.421875 212.035156 115.972656 C 212.378906 115.519531 212.671875 115.039062 212.910156 114.523438 C 213.152344 114.007812 213.332031 113.472656 213.453125 112.917969 C 213.578125 112.363281 213.636719 111.804688 213.640625 111.234375 C 213.636719 110.667969 213.578125 110.105469 213.453125 109.550781 C 213.332031 109 213.152344 108.464844 212.910156 107.949219 C 212.671875 107.433594 212.378906 106.949219 212.035156 106.5 C 211.6875 106.050781 211.300781 105.640625 210.863281 105.273438 C 210.429688 104.910156 209.960938 104.59375 209.457031 104.332031 C 208.957031 104.066406 208.429688 103.863281 207.882812 103.714844 C 207.332031 103.566406 206.777344 103.476562 206.207031 103.453125 C 205.640625 103.425781 205.078125 103.460938 204.519531 103.558594 C 203.957031 103.652344 203.417969 103.808594 202.890625 104.023438 C 202.363281 104.242188 201.867188 104.511719 201.402344 104.832031 C 200.9375 105.15625 200.511719 105.527344 200.125 105.945312 C 199.738281 106.363281 199.402344 106.816406 199.117188 107.304688 L 167.210938 107.304688 C 166.128906 107.304688 165.046875 107.359375 163.96875 107.464844 C 162.890625 107.570312 161.820312 107.730469 160.757812 107.941406 C 159.695312 108.152344 158.644531 108.414062 157.609375 108.730469 C 156.570312 109.046875 155.550781 109.410156 154.550781 109.824219 C 153.550781 110.238281 152.570312 110.703125 151.617188 111.210938 C 150.660156 111.722656 149.730469 112.28125 148.832031 112.882812 C 147.929688 113.484375 147.0625 114.128906 146.222656 114.816406 C 145.386719 115.503906 144.582031 116.230469 143.816406 116.996094 C 143.050781 117.761719 142.324219 118.566406 141.636719 119.402344 C 140.949219 120.238281 140.304688 121.109375 139.703125 122.011719 C 139.101562 122.910156 138.542969 123.839844 138.035156 124.796875 C 137.523438 125.75 137.058594 126.730469 136.644531 127.730469 C 136.230469 128.730469 135.867188 129.75 135.550781 130.789062 C 135.238281 131.824219 134.972656 132.875 134.761719 133.9375 C 134.550781 135 134.390625 136.070312 134.285156 137.148438 C 134.179688 138.226562 134.125 139.308594 134.125 140.390625 C 134.125 141.476562 134.179688 142.554688 134.285156 143.632812 C 134.390625 144.710938 134.550781 145.785156 134.761719 146.847656 C 134.972656 147.910156 135.238281 148.957031 135.550781 149.996094 C 135.867188 151.03125 136.230469 152.050781 136.644531 153.054688 C 137.058594 154.054688 137.523438 155.03125 138.035156 155.988281 C 138.542969 156.945312 139.101562 157.871094 139.703125 158.773438 C 140.304688 159.671875 140.949219 160.542969 141.636719 161.378906 C 142.324219 162.21875 143.050781 163.019531 143.816406 163.785156 C 144.582031 164.550781 145.386719 165.28125 146.222656 165.96875 C 147.0625 166.65625 147.929688 167.300781 148.832031 167.902344 C 149.730469 168.503906 150.660156 169.058594 151.617188 169.570312 C 152.570312 170.082031 153.550781 170.542969 154.550781 170.957031 C 155.550781 171.375 156.570312 171.738281 157.609375 172.050781 C 158.644531 172.367188 159.695312 172.628906 160.757812 172.839844 C 161.820312 173.054688 162.890625 173.210938 163.96875 173.316406 C 165.046875 173.425781 166.128906 173.476562 167.210938 173.476562 Z M 167.210938 173.449219 " fill-opacity="1" fill-rule="nonzero"/></g><path fill="#d9d9d9" d="M 173.960938 122.339844 C 173.675781 121.847656 173.34375 121.390625 172.957031 120.972656 C 172.574219 120.554688 172.152344 120.179688 171.6875 119.855469 C 171.222656 119.527344 170.726562 119.253906 170.203125 119.039062 C 169.679688 118.820312 169.136719 118.660156 168.578125 118.558594 C 168.019531 118.460938 167.457031 118.421875 166.886719 118.445312 C 166.320312 118.46875 165.761719 118.554688 165.214844 118.699219 C 164.664062 118.84375 164.136719 119.046875 163.632812 119.308594 C 163.128906 119.566406 162.660156 119.878906 162.222656 120.242188 C 161.785156 120.605469 161.394531 121.011719 161.046875 121.460938 C 160.699219 121.910156 160.402344 122.390625 160.160156 122.90625 C 159.917969 123.417969 159.734375 123.953125 159.609375 124.507812 C 159.484375 125.058594 159.417969 125.621094 159.414062 126.1875 C 159.414062 126.757812 159.472656 127.320312 159.589844 127.875 C 159.710938 128.429688 159.886719 128.964844 160.125 129.480469 C 160.363281 129.996094 160.652344 130.480469 160.992188 130.933594 C 161.335938 131.386719 161.722656 131.796875 162.15625 132.164062 C 162.589844 132.535156 163.054688 132.851562 163.558594 133.117188 C 164.058594 133.382812 164.582031 133.589844 165.132812 133.742188 C 165.679688 133.894531 166.234375 133.984375 166.804688 134.015625 C 167.371094 134.042969 167.933594 134.011719 168.492188 133.917969 C 169.054688 133.824219 169.597656 133.671875 170.125 133.460938 C 170.648438 133.246094 171.148438 132.980469 171.617188 132.660156 C 172.085938 132.335938 172.511719 131.96875 172.902344 131.554688 C 173.289062 131.140625 173.625 130.6875 173.914062 130.199219 L 223.382812 130.199219 C 223.671875 130.6875 224.007812 131.140625 224.398438 131.554688 C 224.785156 131.96875 225.214844 132.335938 225.679688 132.660156 C 226.148438 132.980469 226.648438 133.246094 227.175781 133.460938 C 227.699219 133.671875 228.242188 133.824219 228.804688 133.917969 C 229.363281 134.011719 229.929688 134.042969 230.496094 134.015625 C 231.0625 133.984375 231.621094 133.894531 232.167969 133.742188 C 232.714844 133.589844 233.238281 133.382812 233.738281 133.117188 C 234.242188 132.851562 234.707031 132.535156 235.140625 132.164062 C 235.574219 131.796875 235.960938 131.386719 236.304688 130.933594 C 236.644531 130.480469 236.9375 129.996094 237.171875 129.480469 C 237.410156 128.964844 237.585938 128.429688 237.707031 127.875 C 237.828125 127.320312 237.886719 126.757812 237.882812 126.1875 C 237.878906 125.621094 237.816406 125.058594 237.6875 124.507812 C 237.5625 123.953125 237.378906 123.417969 237.136719 122.90625 C 236.894531 122.390625 236.597656 121.910156 236.25 121.460938 C 235.902344 121.011719 235.511719 120.605469 235.074219 120.242188 C 234.640625 119.878906 234.167969 119.566406 233.664062 119.308594 C 233.160156 119.046875 232.632812 118.84375 232.082031 118.699219 C 231.535156 118.554688 230.976562 118.46875 230.410156 118.445312 C 229.839844 118.421875 229.277344 118.460938 228.71875 118.558594 C 228.160156 118.660156 227.617188 118.820312 227.09375 119.039062 C 226.570312 119.253906 226.074219 119.527344 225.609375 119.855469 C 225.144531 120.179688 224.722656 120.554688 224.339844 120.972656 C 223.957031 121.390625 223.621094 121.847656 223.339844 122.339844 Z M 173.960938 122.339844 " fill-opacity="1" fill-rule="nonzero"/><g clip-path="url(#289514b71b)"><path fill="#d9d9d9" d="M 207.78125 150.511719 L 167.210938 150.511719 C 166.363281 150.507812 165.523438 150.402344 164.703125 150.191406 C 163.878906 149.980469 163.09375 149.671875 162.347656 149.261719 C 161.601562 148.855469 160.917969 148.359375 160.296875 147.78125 C 159.675781 147.199219 159.136719 146.550781 158.675781 145.835938 C 159.074219 145.433594 159.421875 144.992188 159.722656 144.515625 C 160.023438 144.039062 160.269531 143.535156 160.460938 143.007812 C 160.648438 142.476562 160.78125 141.929688 160.855469 141.371094 C 160.929688 140.8125 160.941406 140.253906 160.890625 139.691406 C 160.84375 139.128906 160.734375 138.582031 160.566406 138.042969 C 160.398438 137.503906 160.175781 136.992188 159.894531 136.5 C 159.617188 136.011719 159.289062 135.558594 158.910156 135.140625 C 158.53125 134.722656 158.113281 134.347656 157.65625 134.019531 C 157.195312 133.695312 156.707031 133.417969 156.1875 133.199219 C 155.671875 132.976562 155.132812 132.8125 154.578125 132.710938 C 154.027344 132.605469 153.46875 132.558594 152.902344 132.578125 C 152.339844 132.59375 151.785156 132.667969 151.238281 132.804688 C 150.691406 132.945312 150.167969 133.136719 149.660156 133.386719 C 149.15625 133.640625 148.683594 133.941406 148.246094 134.296875 C 147.808594 134.648438 147.410156 135.046875 147.058594 135.484375 C 146.703125 135.925781 146.402344 136.394531 146.152344 136.902344 C 145.902344 137.40625 145.707031 137.933594 145.570312 138.480469 C 145.433594 139.027344 145.359375 139.582031 145.34375 140.144531 C 145.328125 140.707031 145.371094 141.265625 145.476562 141.820312 C 145.582031 142.375 145.746094 142.910156 145.96875 143.429688 C 146.191406 143.945312 146.464844 144.433594 146.792969 144.894531 C 147.121094 145.351562 147.492188 145.769531 147.910156 146.148438 C 148.332031 146.523438 148.785156 146.851562 149.273438 147.132812 C 149.765625 147.410156 150.277344 147.632812 150.816406 147.800781 C 151.171875 148.585938 151.582031 149.339844 152.046875 150.066406 C 152.511719 150.789062 153.023438 151.476562 153.585938 152.128906 C 154.148438 152.78125 154.753906 153.386719 155.40625 153.953125 C 156.054688 154.515625 156.742188 155.03125 157.464844 155.5 C 158.1875 155.964844 158.941406 156.375 159.722656 156.734375 C 160.507812 157.09375 161.308594 157.394531 162.136719 157.636719 C 162.960938 157.882812 163.800781 158.0625 164.652344 158.1875 C 165.503906 158.3125 166.359375 158.371094 167.222656 158.375 L 207.78125 158.375 C 208.609375 158.375 209.429688 158.414062 210.253906 158.496094 C 211.074219 158.574219 211.890625 158.695312 212.699219 158.859375 C 213.511719 159.019531 214.308594 159.21875 215.101562 159.460938 C 215.890625 159.699219 216.667969 159.976562 217.429688 160.292969 C 218.191406 160.609375 218.9375 160.960938 219.664062 161.351562 C 220.394531 161.738281 221.101562 162.164062 221.789062 162.621094 C 222.472656 163.082031 223.136719 163.570312 223.773438 164.09375 C 224.414062 164.621094 225.023438 165.171875 225.609375 165.757812 C 226.191406 166.339844 226.746094 166.953125 227.269531 167.589844 C 227.792969 168.226562 228.285156 168.890625 228.742188 169.578125 C 229.199219 170.261719 229.625 170.972656 230.015625 171.699219 C 230.402344 172.425781 230.757812 173.171875 231.070312 173.933594 C 231.386719 174.699219 231.664062 175.472656 231.90625 176.265625 C 232.144531 177.054688 232.34375 177.855469 232.507812 178.664062 C 232.667969 179.472656 232.789062 180.289062 232.871094 181.113281 C 232.949219 181.933594 232.992188 182.757812 232.992188 183.582031 C 232.992188 184.40625 232.949219 185.230469 232.871094 186.054688 C 232.789062 186.875 232.667969 187.691406 232.507812 188.5 C 232.34375 189.308594 232.144531 190.109375 231.90625 190.898438 C 231.664062 191.691406 231.386719 192.464844 231.070312 193.230469 C 230.757812 193.992188 230.402344 194.738281 230.015625 195.464844 C 229.625 196.195312 229.199219 196.902344 228.742188 197.585938 C 228.285156 198.273438 227.792969 198.9375 227.269531 199.574219 C 226.746094 200.210938 226.191406 200.824219 225.609375 201.40625 C 225.023438 201.992188 224.414062 202.546875 223.773438 203.070312 C 223.136719 203.59375 222.472656 204.082031 221.789062 204.542969 C 221.101562 205 220.394531 205.425781 219.664062 205.8125 C 218.9375 206.203125 218.191406 206.554688 217.429688 206.871094 C 216.667969 207.1875 215.890625 207.464844 215.101562 207.707031 C 214.308594 207.945312 213.511719 208.144531 212.699219 208.304688 C 211.890625 208.46875 211.074219 208.589844 210.253906 208.667969 C 209.429688 208.75 208.609375 208.789062 207.78125 208.789062 L 175.601562 208.789062 C 175.316406 208.300781 174.980469 207.847656 174.59375 207.429688 C 174.207031 207.015625 173.78125 206.644531 173.3125 206.320312 C 172.847656 206 172.351562 205.730469 171.828125 205.515625 C 171.300781 205.300781 170.757812 205.144531 170.199219 205.046875 C 169.640625 204.953125 169.078125 204.917969 168.507812 204.945312 C 167.941406 204.96875 167.386719 205.058594 166.835938 205.207031 C 166.289062 205.355469 165.765625 205.5625 165.261719 205.824219 C 164.757812 206.089844 164.289062 206.402344 163.855469 206.769531 C 163.421875 207.132812 163.03125 207.542969 162.6875 207.992188 C 162.34375 208.445312 162.050781 208.925781 161.808594 209.441406 C 161.570312 209.957031 161.390625 210.492188 161.265625 211.046875 C 161.144531 211.597656 161.082031 212.160156 161.082031 212.726562 C 161.082031 213.296875 161.144531 213.855469 161.265625 214.410156 C 161.390625 214.964844 161.570312 215.5 161.808594 216.015625 C 162.050781 216.527344 162.34375 217.011719 162.6875 217.460938 C 163.03125 217.914062 163.421875 218.320312 163.855469 218.6875 C 164.289062 219.054688 164.757812 219.367188 165.261719 219.632812 C 165.765625 219.894531 166.289062 220.101562 166.835938 220.25 C 167.386719 220.398438 167.941406 220.484375 168.507812 220.511719 C 169.078125 220.539062 169.640625 220.503906 170.199219 220.40625 C 170.757812 220.3125 171.300781 220.15625 171.828125 219.941406 C 172.351562 219.726562 172.847656 219.457031 173.3125 219.132812 C 173.78125 218.8125 174.207031 218.441406 174.59375 218.023438 C 174.980469 217.609375 175.316406 217.15625 175.601562 216.664062 L 207.78125 216.664062 C 208.867188 216.664062 209.945312 216.613281 211.023438 216.507812 C 212.105469 216.398438 213.175781 216.242188 214.238281 216.03125 C 215.300781 215.816406 216.347656 215.554688 217.386719 215.242188 C 218.421875 214.925781 219.441406 214.5625 220.445312 214.148438 C 221.445312 213.730469 222.421875 213.269531 223.378906 212.757812 C 224.335938 212.246094 225.261719 211.691406 226.164062 211.089844 C 227.066406 210.488281 227.933594 209.84375 228.773438 209.15625 C 229.609375 208.46875 230.410156 207.742188 231.175781 206.976562 C 231.945312 206.207031 232.671875 205.40625 233.359375 204.570312 C 234.046875 203.730469 234.691406 202.863281 235.292969 201.960938 C 235.894531 201.058594 236.449219 200.132812 236.960938 199.175781 C 237.472656 198.21875 237.933594 197.242188 238.347656 196.242188 C 238.765625 195.238281 239.128906 194.222656 239.441406 193.183594 C 239.757812 192.148438 240.019531 191.097656 240.230469 190.035156 C 240.445312 188.972656 240.601562 187.902344 240.707031 186.824219 C 240.816406 185.742188 240.867188 184.664062 240.867188 183.578125 C 240.867188 182.496094 240.816406 181.414062 240.707031 180.335938 C 240.601562 179.257812 240.445312 178.1875 240.230469 177.125 C 240.019531 176.0625 239.757812 175.011719 239.441406 173.976562 C 239.128906 172.9375 238.765625 171.917969 238.347656 170.917969 C 237.933594 169.917969 237.472656 168.9375 236.960938 167.984375 C 236.449219 167.027344 235.894531 166.097656 235.292969 165.199219 C 234.691406 164.296875 234.046875 163.429688 233.359375 162.589844 C 232.671875 161.753906 231.945312 160.949219 231.175781 160.183594 C 230.410156 159.417969 229.609375 158.691406 228.773438 158.003906 C 227.933594 157.316406 227.066406 156.671875 226.164062 156.070312 C 225.261719 155.46875 224.335938 154.910156 223.378906 154.402344 C 222.421875 153.890625 221.445312 153.425781 220.445312 153.011719 C 219.441406 152.597656 218.421875 152.234375 217.386719 151.917969 C 216.347656 151.605469 215.300781 151.339844 214.238281 151.128906 C 213.175781 150.917969 212.105469 150.757812 211.023438 150.652344 C 209.945312 150.546875 208.867188 150.492188 207.78125 150.492188 Z M 207.78125 150.511719 " fill-opacity="1" fill-rule="nonzero"/></g><path fill="#b5c18e" d="M 201.058594 201.617188 C 201.34375 202.109375 201.679688 202.5625 202.066406 202.980469 C 202.449219 203.398438 202.878906 203.769531 203.34375 204.09375 C 203.8125 204.414062 204.308594 204.6875 204.832031 204.902344 C 205.359375 205.117188 205.902344 205.273438 206.460938 205.371094 C 207.019531 205.464844 207.585938 205.5 208.152344 205.476562 C 208.71875 205.449219 209.277344 205.363281 209.824219 205.214844 C 210.375 205.066406 210.898438 204.859375 211.402344 204.597656 C 211.90625 204.332031 212.375 204.019531 212.808594 203.652344 C 213.246094 203.285156 213.636719 202.878906 213.980469 202.425781 C 214.324219 201.976562 214.617188 201.492188 214.859375 200.976562 C 215.097656 200.460938 215.277344 199.925781 215.402344 199.371094 C 215.523438 198.816406 215.585938 198.257812 215.585938 197.6875 C 215.585938 197.121094 215.523438 196.558594 215.402344 196.003906 C 215.277344 195.449219 215.097656 194.914062 214.859375 194.398438 C 214.617188 193.882812 214.324219 193.402344 213.980469 192.949219 C 213.636719 192.5 213.246094 192.089844 212.808594 191.722656 C 212.375 191.359375 211.90625 191.042969 211.402344 190.78125 C 210.898438 190.515625 210.375 190.3125 209.824219 190.164062 C 209.277344 190.015625 208.71875 189.925781 208.152344 189.902344 C 207.585938 189.875 207.019531 189.910156 206.460938 190.007812 C 205.902344 190.101562 205.359375 190.257812 204.832031 190.476562 C 204.308594 190.691406 203.8125 190.960938 203.34375 191.285156 C 202.878906 191.609375 202.449219 191.980469 202.066406 192.394531 C 201.679688 192.8125 201.34375 193.265625 201.058594 193.757812 L 151.636719 193.757812 C 151.351562 193.265625 151.015625 192.8125 150.628906 192.398438 C 150.242188 191.980469 149.816406 191.609375 149.351562 191.285156 C 148.882812 190.960938 148.390625 190.691406 147.863281 190.476562 C 147.335938 190.261719 146.796875 190.105469 146.234375 190.007812 C 145.675781 189.914062 145.113281 189.878906 144.546875 189.902344 C 143.976562 189.929688 143.421875 190.015625 142.871094 190.164062 C 142.324219 190.3125 141.796875 190.519531 141.296875 190.785156 C 140.792969 191.046875 140.324219 191.359375 139.890625 191.726562 C 139.453125 192.09375 139.066406 192.5 138.71875 192.953125 C 138.375 193.402344 138.082031 193.886719 137.84375 194.402344 C 137.601562 194.914062 137.421875 195.449219 137.300781 196.003906 C 137.175781 196.558594 137.113281 197.121094 137.113281 197.6875 C 137.113281 198.257812 137.175781 198.816406 137.300781 199.371094 C 137.421875 199.925781 137.601562 200.460938 137.84375 200.976562 C 138.082031 201.492188 138.375 201.972656 138.71875 202.425781 C 139.066406 202.875 139.453125 203.285156 139.890625 203.648438 C 140.324219 204.015625 140.792969 204.328125 141.296875 204.59375 C 141.796875 204.855469 142.324219 205.0625 142.871094 205.210938 C 143.421875 205.359375 143.976562 205.445312 144.546875 205.472656 C 145.113281 205.5 145.675781 205.464844 146.234375 205.367188 C 146.796875 205.269531 147.335938 205.113281 147.863281 204.898438 C 148.390625 204.683594 148.882812 204.414062 149.351562 204.089844 C 149.816406 203.765625 150.242188 203.394531 150.628906 202.980469 C 151.015625 202.5625 151.351562 202.109375 151.636719 201.617188 Z M 201.058594 201.617188 " fill-opacity="1" fill-rule="nonzero"/><g fill="#b5c18e" fill-opacity="1"><g transform="translate(75.391988, 257.699001)"><g><path d="M 9.238281 0.203125 C 14.035156 0.203125 16.378906 -1.054688 16.378906 -3.640625 C 16.378906 -6.328125 13.742188 -7.042969 9.101562 -7.398438 C 5.835938 -7.65625 4.644531 -7.996094 4.644531 -9.203125 C 4.644531 -10.136719 5.5625 -10.582031 7.859375 -10.582031 C 11.023438 -10.582031 13.710938 -9.695312 15.699219 -8.792969 C 15.53125 -9.847656 15.53125 -10.921875 15.699219 -11.976562 C 13.25 -12.570312 11.277344 -12.996094 7.976562 -12.996094 C 3.25 -12.996094 0.9375 -11.71875 0.9375 -9.101562 C 0.9375 -6.550781 3.402344 -5.785156 7.585938 -5.410156 C 11.429688 -5.070312 12.671875 -4.914062 12.671875 -3.65625 C 12.671875 -2.703125 11.789062 -2.210938 9.578125 -2.210938 C 6.445312 -2.210938 2.703125 -2.941406 1.070312 -4.625 C 1.242188 -3.503906 1.242188 -2.382812 1.070312 -1.257812 C 3.214844 -0.460938 6.15625 0.203125 9.238281 0.203125 Z M 9.238281 0.203125 "/></g></g></g><g fill="#b5c18e" fill-opacity="1"><g transform="translate(93.790675, 257.699001)"><g><path d="M 16.992188 0 C 14.96875 -4.253906 13.097656 -8.503906 11.414062 -12.757812 C 9.984375 -12.484375 7.074219 -12.570312 5.628906 -12.757812 C 3.945312 -8.503906 2.109375 -4.253906 0.0859375 0 L 4.117188 0 L 5.050781 -2.464844 C 7.109375 -2.535156 9.867188 -2.535156 11.90625 -2.464844 C 12.230469 -1.582031 12.535156 -0.730469 12.773438 0 Z M 5.851562 -4.542969 C 6.890625 -7.261719 7.960938 -9.898438 8.453125 -10.835938 C 8.964844 -9.898438 10.085938 -7.246094 11.125 -4.542969 C 9.507812 -4.472656 7.449219 -4.472656 5.851562 -4.542969 Z M 5.851562 -4.542969 "/></g></g></g><g fill="#b5c18e" fill-opacity="1"><g transform="translate(111.951301, 257.699001)"><g><path d="M 12.484375 -12.757812 C 11.242188 -9.441406 9.132812 -4.066406 8.25 -2.226562 C 7.3125 -4.066406 5.203125 -9.457031 4.117188 -12.757812 C 2.722656 -12.585938 1.480469 -12.585938 0.0859375 -12.757812 C 2.226562 -8.285156 3.84375 -4.507812 5.460938 0 L 10.902344 0 C 12.636719 -4.507812 14.152344 -8.285156 16.3125 -12.757812 C 14.984375 -12.585938 13.8125 -12.585938 12.484375 -12.757812 Z M 12.484375 -12.757812 "/></g></g></g><g fill="#b5c18e" fill-opacity="1"><g transform="translate(129.43177, 257.699001)"><g><path d="M 9.558594 -4.59375 C 11.652344 -7.398438 13.8125 -10.121094 16.074219 -12.757812 C 14.628906 -12.554688 12.960938 -12.535156 11.890625 -12.757812 C 10.632812 -10.664062 9.269531 -8.65625 7.839844 -6.753906 C 6.414062 -8.675781 5.070312 -10.664062 3.792969 -12.757812 C 2.722656 -12.535156 0.9375 -12.554688 -0.511719 -12.757812 C 1.753906 -10.121094 3.914062 -7.398438 6.003906 -4.59375 C 6.175781 -3.0625 6.175781 -1.53125 6.003906 0 L 9.578125 0 C 9.40625 -1.53125 9.390625 -3.0625 9.558594 -4.59375 Z M 9.558594 -4.59375 "/></g></g></g><g fill="#b5c18e" fill-opacity="1"><g transform="translate(146.079054, 257.699001)"><g/></g></g><g fill="#b5c18e" fill-opacity="1"><g transform="translate(152.2689, 257.699001)"><g><path d="M 9.238281 0.203125 C 14.035156 0.203125 16.378906 -1.054688 16.378906 -3.640625 C 16.378906 -6.328125 13.742188 -7.042969 9.101562 -7.398438 C 5.835938 -7.65625 4.644531 -7.996094 4.644531 -9.203125 C 4.644531 -10.136719 5.5625 -10.582031 7.859375 -10.582031 C 11.023438 -10.582031 13.710938 -9.695312 15.699219 -8.792969 C 15.53125 -9.847656 15.53125 -10.921875 15.699219 -11.976562 C 13.25 -12.570312 11.277344 -12.996094 7.976562 -12.996094 C 3.25 -12.996094 0.9375 -11.71875 0.9375 -9.101562 C 0.9375 -6.550781 3.402344 -5.785156 7.585938 -5.410156 C 11.429688 -5.070312 12.671875 -4.914062 12.671875 -3.65625 C 12.671875 -2.703125 11.789062 -2.210938 9.578125 -2.210938 C 6.445312 -2.210938 2.703125 -2.941406 1.070312 -4.625 C 1.242188 -3.503906 1.242188 -2.382812 1.070312 -1.257812 C 3.214844 -0.460938 6.15625 0.203125 9.238281 0.203125 Z M 9.238281 0.203125 "/></g></g></g><g fill="#b5c18e" fill-opacity="1"><g transform="translate(170.667588, 257.699001)"><g><path d="M 9.390625 0.289062 C 14.867188 0.289062 18.082031 -2.175781 18.082031 -6.414062 C 18.082031 -10.648438 14.867188 -13.113281 9.390625 -13.113281 C 3.914062 -13.113281 0.679688 -10.648438 0.679688 -6.414062 C 0.679688 -2.175781 3.914062 0.289062 9.390625 0.289062 Z M 9.390625 -1.972656 C 6.105469 -1.972656 4.253906 -3.570312 4.253906 -6.328125 C 4.253906 -9.167969 6.105469 -10.835938 9.390625 -10.835938 C 12.636719 -10.835938 14.542969 -9.167969 14.542969 -6.328125 C 14.542969 -3.570312 12.636719 -1.972656 9.390625 -1.972656 Z M 9.390625 -1.972656 "/></g></g></g><g fill="#b5c18e" fill-opacity="1"><g transform="translate(190.511602, 257.699001)"><g><path d="M 1.359375 0 L 5.375 0 C 5.101562 -1.597656 5.050781 -3.214844 5.050781 -4.8125 C 7.875 -4.898438 11.398438 -4.746094 13.453125 -4.574219 C 13.371094 -5.390625 13.371094 -6.3125 13.453125 -7.128906 C 11.414062 -6.941406 7.894531 -6.769531 5.050781 -6.839844 C 5.019531 -8.046875 5.019531 -9.269531 5.085938 -10.476562 C 7.925781 -10.527344 12.605469 -10.1875 14.644531 -9.628906 C 14.5625 -10.648438 14.5625 -11.6875 14.644531 -12.707031 C 11.738281 -12.398438 2.875 -12.535156 1.359375 -12.757812 C 1.617188 -9.816406 1.617188 -2.941406 1.359375 0 Z M 1.359375 0 "/></g></g></g><g fill="#b5c18e" fill-opacity="1"><g transform="translate(206.665772, 257.699001)"><g><path d="M 5.816406 0 L 9.730469 0 C 9.507812 -2.3125 9.457031 -7.09375 9.558594 -10.476562 C 12.109375 -10.425781 13.8125 -10.238281 15.460938 -9.898438 C 15.292969 -10.851562 15.292969 -11.804688 15.460938 -12.757812 C 9.660156 -12.585938 5.886719 -12.585938 0.0859375 -12.757812 C 0.253906 -11.804688 0.253906 -10.851562 0.0859375 -9.898438 C 1.71875 -10.238281 3.402344 -10.425781 5.9375 -10.476562 C 6.054688 -7.109375 6.023438 -2.332031 5.816406 0 Z M 5.816406 0 "/></g></g></g><g fill="#b5c18e" fill-opacity="1"><g transform="translate(223.296051, 257.699001)"><g><path d="M 18.421875 -12.757812 C 17.878906 -10.085938 17.042969 -6.328125 15.886719 -1.804688 C 15.019531 -5.308594 14.253906 -9.269531 13.761719 -12.757812 C 12.058594 -12.585938 10.359375 -12.585938 8.65625 -12.757812 C 8.199219 -9.21875 7.5 -5.578125 6.566406 -1.785156 C 5.546875 -5.648438 4.660156 -9.421875 3.964844 -12.757812 C 2.671875 -12.585938 1.378906 -12.585938 0.0859375 -12.757812 C 1.328125 -9.679688 2.703125 -4.386719 3.859375 0 L 9.339844 0 C 9.730469 -2.753906 10.460938 -7.09375 11.226562 -10.105469 C 12.027344 -7.074219 12.742188 -2.722656 13.132812 0 L 18.4375 0 C 19.75 -4.796875 21.125 -10.085938 22.214844 -12.757812 C 20.957031 -12.585938 19.679688 -12.585938 18.421875 -12.757812 Z M 18.421875 -12.757812 "/></g></g></g><g fill="#b5c18e" fill-opacity="1"><g transform="translate(246.676901, 257.699001)"><g><path d="M 16.992188 0 C 14.96875 -4.253906 13.097656 -8.503906 11.414062 -12.757812 C 9.984375 -12.484375 7.074219 -12.570312 5.628906 -12.757812 C 3.945312 -8.503906 2.109375 -4.253906 0.0859375 0 L 4.117188 0 L 5.050781 -2.464844 C 7.109375 -2.535156 9.867188 -2.535156 11.90625 -2.464844 C 12.230469 -1.582031 12.535156 -0.730469 12.773438 0 Z M 5.851562 -4.542969 C 6.890625 -7.261719 7.960938 -9.898438 8.453125 -10.835938 C 8.964844 -9.898438 10.085938 -7.246094 11.125 -4.542969 C 9.507812 -4.472656 7.449219 -4.472656 5.851562 -4.542969 Z M 5.851562 -4.542969 "/></g></g></g><g fill="#b5c18e" fill-opacity="1"><g transform="translate(264.837529, 257.699001)"><g><path d="M 1.359375 0 L 5.222656 0 C 5.101562 -1.226562 5.050781 -2.246094 5 -4.710938 C 5.699219 -4.710938 6.34375 -4.695312 6.921875 -4.625 C 10.1875 -4.320312 11.550781 -3.078125 11.855469 0 L 16.738281 0 C 16.089844 -1.359375 14.40625 -4.320312 10.871094 -4.984375 L 10.871094 -5.257812 C 12.433594 -5.257812 16.195312 -5.917969 16.195312 -9.066406 C 16.195312 -11.601562 13.914062 -12.824219 8.894531 -12.824219 C 6.074219 -12.824219 4.421875 -12.691406 1.359375 -12.757812 C 1.617188 -9.816406 1.617188 -2.941406 1.359375 0 Z M 4.984375 -6.820312 C 4.984375 -8.183594 5 -9.371094 5.050781 -10.476562 C 5.765625 -10.476562 7.296875 -10.546875 8.777344 -10.546875 C 10.988281 -10.546875 12.453125 -10.054688 12.453125 -8.691406 C 12.453125 -7.3125 11.109375 -6.667969 8.625 -6.667969 C 7.210938 -6.667969 5.988281 -6.769531 4.984375 -6.820312 Z M 4.984375 -6.820312 "/></g></g></g><g fill="#b5c18e" fill-opacity="1"><g transform="translate(283.168205, 257.699001)"><g><path d="M 1.359375 0 L 15.496094 0 C 15.410156 -1.019531 15.410156 -2.109375 15.496094 -3.128906 C 13.472656 -2.570312 8.234375 -2.226562 5.121094 -2.28125 C 5.050781 -3.300781 5.035156 -4.304688 5.035156 -5.324219 C 8.164062 -5.410156 12.246094 -5.257812 14.304688 -5.085938 C 14.21875 -5.902344 14.21875 -6.820312 14.304688 -7.636719 C 12.265625 -7.449219 8.183594 -7.28125 5.035156 -7.347656 C 5.019531 -8.386719 5.035156 -9.441406 5.085938 -10.476562 C 8.183594 -10.527344 13.453125 -10.1875 15.496094 -9.628906 C 15.410156 -10.648438 15.410156 -11.6875 15.496094 -12.707031 C 12.585938 -12.398438 2.976562 -12.535156 1.359375 -12.757812 C 1.617188 -9.816406 1.617188 -2.941406 1.359375 0 Z M 1.359375 0 "/></g></g></g></svg>