<?xml version="1.0" standalone="no"?>
<!DOCTYPE svg PUBLIC "-//W3C//DTD SVG 20010904//EN"
 "http://www.w3.org/TR/2001/REC-SVG-20010904/DTD/svg10.dtd">
<svg version="1.0" xmlns="http://www.w3.org/2000/svg"
 width="500.000000pt" height="500.000000pt" viewBox="0 0 500.000000 500.000000"
 preserveAspectRatio="xMidYMid meet">

<g transform="translate(0.000000,500.000000) scale(0.100000,-0.100000)"
fill="#000000" stroke="none">
<path d="M2470 3841 c-333 -48 -490 -257 -405 -540 l16 -53 20 39 c51 104 193
102 412 -8 153 -77 360 -226 426 -306 21 -25 33 -33 43 -27 8 5 135 112 282
238 l267 229 -58 60 c-170 173 -421 305 -667 352 -99 19 -262 27 -336 16z"/>
<path d="M1476 1938 c39 -276 159 -496 344 -634 107 -79 282 -137 451 -149 98
-7 284 12 384 39 49 13 50 14 23 24 -425 171 -632 278 -763 396 l-40 36 95
-50 c237 -122 482 -211 764 -275 17 -4 18 1 12 58 -8 83 -54 175 -113 227
-105 92 -244 137 -583 190 -322 49 -434 81 -534 150 l-46 31 6 -43z"/>
</g>
</svg>
